inDegrees=no
num_controls=7
num_derivatives=13
num_iterations=130
num_multipliers=7
num_parameters=0
num_slacks=7
num_states=26
objective=0.545145
objective_accelerations=0.042025
objective_balance=0.003886
objective_effort=0.041080
objective_height=0.448712
objective_ligament=0.009443
solver_duration=1394.409324
status=Solve_Succeeded
success=true
DataType=double
version=3
OpenSimVersion=4.5
endheader
time	/jointset/ground_pelvis/pelvis_tilt/value	/jointset/ground_pelvis/pelvis_tx/value	/jointset/ground_pelvis/pelvis_ty/value	/jointset/hip_r/hip_flexion_r/value	/jointset/hip_r/hip_adduction_r/value	/jointset/hip_r/hip_rotation_r/value	/jointset/back/lumbar_extension/value	/jointset/patellofemoral_r/patellar_flexion_r/value	/jointset/knee_r/knee_flexion_r/value	/jointset/knee_r/knee_adduction_r/value	/jointset/knee_r/knee_rotation_r/value	/jointset/ankle_r/ankle_angle_r/value	/jointset/subtalar_r/subtalar_angle_r/value	/jointset/ground_pelvis/pelvis_tilt/speed	/jointset/ground_pelvis/pelvis_tx/speed	/jointset/ground_pelvis/pelvis_ty/speed	/jointset/hip_r/hip_flexion_r/speed	/jointset/hip_r/hip_adduction_r/speed	/jointset/hip_r/hip_rotation_r/speed	/jointset/back/lumbar_extension/speed	/jointset/patellofemoral_r/patellar_flexion_r/speed	/jointset/knee_r/knee_flexion_r/speed	/jointset/knee_r/knee_adduction_r/speed	/jointset/knee_r/knee_rotation_r/speed	/jointset/ankle_r/ankle_angle_r/speed	/jointset/subtalar_r/subtalar_angle_r/speed	/forceset/tau_hip_flexion_r	/forceset/tau_hip_adduction_r	/forceset/tau_hip_rotation_r	/forceset/tau_knee_flexion_r	/forceset/tau_ankle_angle_r	/forceset/tau_subtalar_angle_r	/forceset/tau_lumbar_extension	lambda_cid13_p0	lambda_cid14_p0	lambda_cid14_p1	lambda_cid14_p2	lambda_cid14_p3	lambda_cid14_p4	lambda_cid14_p5	/jointset/ground_pelvis/pelvis_tilt/accel	/jointset/ground_pelvis/pelvis_tx/accel	/jointset/ground_pelvis/pelvis_ty/accel	/jointset/hip_r/hip_flexion_r/accel	/jointset/hip_r/hip_adduction_r/accel	/jointset/hip_r/hip_rotation_r/accel	/jointset/back/lumbar_extension/accel	/jointset/patellofemoral_r/patellar_flexion_r/accel	/jointset/knee_r/knee_flexion_r/accel	/jointset/knee_r/knee_adduction_r/accel	/jointset/knee_r/knee_rotation_r/accel	/jointset/ankle_r/ankle_angle_r/accel	/jointset/subtalar_r/subtalar_angle_r/accel	gamma_cid13_p0	gamma_cid14_p0	gamma_cid14_p1	gamma_cid14_p2	gamma_cid14_p3	gamma_cid14_p4	gamma_cid14_p5
1.5	-0.235275711457268	0.002820412458261561	0.8476218608573511	0.8846639579101211	-0.2251077788169167	-0.142662328061714	-0.3052125762301465	0.6515119495735813	0.651511949573343	0.03645190355556727	0.1744309157185486	0.1694040526279072	0.03687267018145998	0.5777447625024607	0.2444234455938839	0.4069028487084491	-2.01694040068068	0.01160851549063088	-0.2910546641023104	0.6972936115184849	-1.743821986733068	-1.743821986732909	0.2773250870993809	0.0004332203593431247	-0.3849265680407932	-0.08418990316856871	-0.1480026454984449	-0.02104134560118731	0.00773231657627158	-0.2922521671998073	0.1099177947958474	-0.009708617640348414	0.1786173623434708	-34.00866525750996	-6.337809485289045	-1.002368602810761	-4.319033321866943	-2.775648054731215	-658.3880933176181	58.05954755239974	0.2899193250681307	0.5513361999466042	-0.4489977700798052	-1.204158165968929	0.00381290716082484	-0.5111098756270938	1.685280803018694	-1.112338822696235	-1.11233882269623	0.4574354738586148	0.004126689288031801	-0.320673354550164	-0.04497245107705578	1.295169740088415e-07	1.886939134335031e-07	-4.263755402391023e-07	1.265716556343296e-06	-6.249096936795905e-08	2.588391979446644e-07	-4.437874796300236e-07
1.51	-0.2294842762223304	0.005291914163950848	0.8516675695286428	0.8644365495408097	-0.2249924584975743	-0.1455971437324729	-0.2981567032208812	0.6340204681788817	0.6340204681787819	0.03925037194881225	0.1744354439028706	0.1655390346812033	0.03602742706638245	0.5804602273588837	0.2498419428105602	0.4021502661490522	-2.028259055918433	0.01145271801008948	-0.2958763497060947	0.713776056015344	-1.754219268994115	-1.754219268994068	0.2823620558219428	0.0004555067391867576	-0.3880168966426515	-0.084845519211685	-0.1399712980484456	-0.02261670278754576	0.007105595081436211	-0.2894650814327712	0.1118417569043166	-0.0103000650998908	0.1716810671127861	-34.91715224600983	-5.5131314662721	-1.018470362583334	-4.426542055653178	-2.967028738313288	-654.0739310583667	58.14331204891216	0.2500717677583026	0.5318508914677689	-0.5016236445094895	-1.053360113377985	-0.02555586315969671	-0.462654705689153	1.613986124975385	-0.9651974512010049	-0.965197451217806	0.5258420993824533	-0.001000350232470849	-0.2941854736460141	-0.07379631366480656	1.364530363471221e-07	1.965798276382133e-07	-4.705458836681471e-07	1.315924187841472e-06	-6.309529931863557e-08	2.786280404790614e-07	-4.918295740855915e-07
1.52	-0.2236681439984683	0.007816549723594579	0.8556631053452125	0.8441044264369784	-0.2248787521105342	-0.1485791676198577	-0.290939153796257	0.6164326590568955	0.6164326590569329	0.04209901293487245	0.1744397389584722	0.1616449188763522	0.03517603976432658	0.5826841602884814	0.2550502163847725	0.396868277764061	-2.037883347584162	0.01128572902962201	-0.3004963074272795	0.7296288945904513	-1.763087532190843	-1.763087532190908	0.2873596056616021	0.0003865946164309388	-0.3907461396702027	-0.08541874056423647	-0.1319399505984374	-0.0241920599738997	0.00647887358655197	-0.2866779956657333	0.1137657190127874	-0.01089151255942688	0.1647447718821083	-35.79375187929214	-4.696034069793405	-1.032565032430214	-4.538180400363882	-3.158456341819542	-649.8830543120287	58.30743465891064	0.1916129397029408	0.5092914714538943	-0.5548789351986811	-0.8652854515638803	0.001574607175612725	-0.4707642991071867	1.559359618668218	-0.8065350098324	-0.8065350098323977	0.4495516972781181	-0.01411301123186132	-0.2484562396886435	-0.02849351296406614	1.458424397310629e-07	2.004144581556109e-07	-5.692744414382106e-07	1.337766788194674e-06	-5.567822742511431e-08	2.977520427282314e-07	-5.556296284790694e-07
1.53	-0.217832283595423	0.0103921641946451	0.859603230579283	0.8236846027479436	-0.2247668234573779	-0.1516069518091148	-0.2835664938418113	0.5987638700486478	0.5987638700486124	0.04499719660648166	0.1744433905796367	0.1577253296477087	0.03431928818721069	0.5843970320169127	0.2600315397512447	0.3910730453088336	-2.045780383009575	0.01110113902247613	-0.305045432638324	0.744773222892146	-1.770401843517004	-1.77040184351703	0.2922491583929194	0.0003414055154486393	-0.393105633826151	-0.08591215073993852	-0.1235525899813019	-0.0261189151689014	0.005866077545310715	-0.2844362903782784	0.1164276774258725	-0.0116775547561369	0.157519751692288	-36.6338476197372	-3.658206500137353	-1.098544029340794	-4.634669685328225	-3.466018135660176	-645.797894165502	58.46290989340865	0.1475106710381772	0.4863758174369122	-0.604338755922414	-0.7067352924587299	-0.02819790592062463	-0.4444728274403111	1.472488424764976	-0.6536481549763586	-0.6536481549705254	0.5044114905014776	0.0001860455127794007	-0.2197691241714275	-0.05682322173108423	1.578385179760177e-07	1.999445997552388e-07	-7.25971101945606e-07	1.329471542956341e-06	-3.973841607213302e-08	3.161696521743477e-07	-6.361725153065764e-07
1.54	-0.2119820171987747	0.01301635650899869	0.8634829048177536	0.8031948441637662	-0.2246566851245441	-0.1546797244895497	-0.2760462868065806	0.581029984134948	0.581029984134839	0.04794342669129653	0.174446571890793	0.1537841308533808	0.03345819081796619	0.5855653590103612	0.264765785045386	0.3847780786441021	-2.051870326612134	0.01092766496489035	-0.3094940056628563	0.7591383107476515	-1.776106913281905	-1.776106913281892	0.2969688883019531	0.0002925326162349378	-0.3950680528070383	-0.08628789898995244	-0.1151652293641563	-0.02804577036389822	0.00525328150400593	-0.282194585090821	0.1190896358389596	-0.01246359695283914	0.1502947315024755	-37.43282692685692	-2.62836474740056	-1.162335296238137	-4.735604662809109	-3.771489791814226	-641.8423922687957	58.70411821376696	0.0827039927062541	0.4598758569878229	-0.654825777099496	-0.503867086992988	0.003797797087632924	-0.4506538618047475	1.403511529430319	-0.4846866975806514	-0.4846866975806511	0.415587132821421	-0.01484977087814289	-0.1690412046763232	-0.004961127826412447	1.683452208317905e-07	1.998397342556803e-07	-8.591419147972118e-07	1.325487731024583e-06	-2.64461255248853e-08	3.333359287520531e-07	-7.074238628560478e-07
1.55	-0.2061227910353764	0.01568655050011043	0.8672971836076989	0.7826533362518322	-0.2245483056109808	-0.1577966252460385	-0.2683865628317704	0.5632472036939487	0.5632472036940214	0.05093604706632782	0.1744494417026517	0.1498252497525778	0.03259382463872391	0.5861886415826041	0.2692206682072028	0.3779991285941501	-2.056111791422835	0.01074640251675307	-0.3138598714895376	0.7726511090864178	-1.780162732627141	-1.780162732627107	0.3015311594726268	0.0002778256163768309	-0.3966424002423629	-0.08657016435052209	-0.1067599254691817	-0.03009921288374556	0.004656896215885203	-0.2799170098730621	0.1215842128770278	-0.01338879771059303	0.1430181279273323	-38.18608042206029	-1.670823896990028	-1.301793132070328	-4.821539198021029	-3.940881848990573	-638.0236162168256	58.84971615699629	0.03847469176119071	0.4304406977847853	-0.7011406722790234	-0.3363404717886177	-0.02928176039621361	-0.4253461933415061	1.301857716717191	-0.3230996133657244	-0.3230996133625753	0.4728648724836586	0.004937800972915516	-0.1417457246831661	-0.03758894296764826	1.77135904217419e-07	2.001554040548853e-07	-9.652068596975834e-07	1.326471440076489e-06	-1.620423938424348e-08	3.490604522422418e-07	-7.679697412373481e-07
